<svg width="68" height="66" viewBox="0 0 68 66" fill="none" xmlns="http://www.w3.org/2000/svg">
<path d="M36.7187 30.9826H65.3127C66.0461 30.9826 66.6408 30.3845 66.6408 29.6587L66.6409 29.6341C66.6409 21.7188 63.5286 14.2772 57.8774 8.68005C52.2258 3.08267 44.7114 0 36.7187 0C35.9854 0 35.3906 0.588333 35.3906 1.31412V29.6684C35.3906 30.3942 35.9852 30.9826 36.7187 30.9826ZM38.0469 2.65992C52.0364 3.32749 63.2938 14.4861 63.9539 28.3543H38.0469V2.65992Z" fill="black"/>
<path d="M67.6117 34.6635C67.3625 34.4168 67.0245 34.2781 66.672 34.2781H38.0781C37.541 34.2781 37.0569 34.5982 36.8512 35.0891C36.6456 35.5799 36.759 36.1451 37.1386 36.5209L57.3402 56.5291C57.5891 56.7756 57.927 56.9144 58.2792 56.9145C58.6311 56.9145 58.9694 56.7762 59.2184 56.53C64.8719 50.9403 67.9906 43.505 68 35.5938C68.0005 35.2449 67.8608 34.9103 67.6117 34.6635ZM58.2582 53.7198L56.7805 52.2562L59.0686 49.9921C59.5872 49.479 59.5872 48.6469 59.0686 48.1337C58.5498 47.6205 57.7091 47.6205 57.1902 48.1337L54.9031 50.3968L52.4082 47.9258L58.4581 41.9396C58.9767 41.4264 58.9767 40.5943 58.4581 40.0812C57.9393 39.568 57.0986 39.568 56.5797 40.0812L50.5307 46.0663L48.2392 43.7967L50.2518 41.8051C50.7705 41.292 50.7705 40.4599 50.2518 39.9467C49.7331 39.4336 48.8924 39.4336 48.3735 39.9467L46.3617 41.9372L41.2818 36.906H65.3107C65.0012 43.1856 62.5322 49.0713 58.2582 53.7198Z" fill="black"/>
<path d="M31.2502 35.8561V8.04559C31.2502 7.3198 30.6556 6.73146 29.9221 6.73146C21.9294 6.73146 14.4151 9.81413 8.76338 15.4116C3.11233 21.0088 0 28.4504 0 36.3657C0 44.2811 3.11233 51.7227 8.76352 57.3198C14.4151 62.9173 21.9294 66 29.9222 66C37.9052 66 45.4131 62.9236 51.0627 57.3377C51.5814 56.8248 51.5818 55.9928 51.0635 55.4793L31.2502 35.8561ZM29.9221 63.3717C14.8876 63.3717 2.65626 51.2568 2.65626 36.3657C2.65626 21.9154 14.1736 10.0795 28.5939 9.39138V35.6783L14.5892 44.4874C13.9702 44.8768 13.7874 45.6889 14.181 46.3014C14.434 46.6954 14.8639 46.9108 15.303 46.9108C15.5467 46.9108 15.7933 46.8444 16.0142 46.7054L29.7353 38.0746L48.2233 56.3852C43.2 60.9005 36.7521 63.3717 29.9221 63.3717Z" fill="black"/>
</svg>
