<svg width="66" height="66" viewBox="0 0 66 66" fill="none" xmlns="http://www.w3.org/2000/svg">
<path d="M27.8452 44.6016C28.5571 44.6016 29.1343 44.0244 29.1343 43.3125C29.1343 42.6006 28.5571 42.0234 27.8452 42.0234C27.1332 42.0234 26.556 42.6006 26.556 43.3125C26.556 44.0244 27.1332 44.6016 27.8452 44.6016Z" fill="black"/>
<path d="M5.15651 17.5312V22.6875C5.15651 23.3994 5.73366 23.9766 6.44564 23.9766H43.7015C44.4133 23.9766 44.9906 23.3994 44.9906 22.6875V17.5312C44.9906 16.8193 44.4133 16.2422 43.7015 16.2422H6.44564C5.73366 16.2422 5.15651 16.8193 5.15651 17.5312ZM18.8213 18.8203H42.4123V21.3984H18.8213V18.8203ZM7.73477 18.8203H16.243V21.3984H7.73477V18.8203Z" fill="black"/>
<path d="M6.44564 29.1328H43.7015C44.4133 29.1328 44.9906 28.5557 44.9906 27.8438C44.9906 27.1318 44.4133 26.5547 43.7015 26.5547H6.44564C5.73366 26.5547 5.15651 27.1318 5.15651 27.8438C5.15651 28.5557 5.73366 29.1328 6.44564 29.1328Z" fill="black"/>
<path d="M6.44564 34.2891H43.7015C44.4133 34.2891 44.9906 33.7119 44.9906 33C44.9906 32.2881 44.4133 31.7109 43.7015 31.7109H6.44564C5.73366 31.7109 5.15651 32.2881 5.15651 33C5.15651 33.7119 5.73366 34.2891 6.44564 34.2891Z" fill="black"/>
<path d="M6.44564 39.4453H27.8452C28.5572 39.4453 29.1343 38.8682 29.1343 38.1562C29.1343 37.4443 28.5572 36.8672 27.8452 36.8672H6.44564C5.73366 36.8672 5.15651 37.4443 5.15651 38.1562C5.15651 38.8682 5.73366 39.4453 6.44564 39.4453Z" fill="black"/>
<path d="M6.44564 44.6016H22.6887C23.4006 44.6016 23.9778 44.0244 23.9778 43.3125C23.9778 42.6006 23.4006 42.0234 22.6887 42.0234H6.44564C5.73366 42.0234 5.15651 42.6006 5.15651 43.3125C5.15651 44.0244 5.73366 44.6016 6.44564 44.6016Z" fill="black"/>
<path d="M17.5321 54.9141H24.1075C24.7064 57.8525 27.3106 60.0703 30.4234 60.0703C33.9776 60.0703 36.8691 57.1789 36.8691 53.625C36.8691 50.0711 33.9776 47.1797 30.4234 47.1797C27.3107 47.1797 24.7064 49.3975 24.1075 52.3359H17.5321C16.8202 52.3359 16.243 52.9131 16.243 53.625C16.243 54.3369 16.8202 54.9141 17.5321 54.9141ZM30.4234 52.3359H26.7778C27.3099 50.8356 28.7428 49.7578 30.4234 49.7578C32.5559 49.7578 34.2908 51.4926 34.2908 53.625C34.2908 55.7574 32.5559 57.4922 30.4234 57.4922C28.7429 57.4922 27.3099 56.4144 26.7778 54.9141H30.4234C31.1353 54.9141 31.7126 54.3369 31.7126 53.625C31.7126 52.9131 31.1354 52.3359 30.4234 52.3359Z" fill="black"/>
<path d="M43.7015 10.3125C44.4133 10.3125 44.9906 9.73539 44.9906 9.02344C44.9906 8.31149 44.4133 7.73438 43.7015 7.73438H41.1232C40.4113 7.73438 39.8341 8.31149 39.8341 9.02344C39.8341 9.73539 40.4113 10.3125 41.1232 10.3125H43.7015Z" fill="black"/>
<path d="M35.9667 10.3125C36.6785 10.3125 37.2558 9.73539 37.2558 9.02344C37.2558 8.31149 36.6785 7.73438 35.9667 7.73438H33.3884C32.6766 7.73438 32.0993 8.31149 32.0993 9.02344C32.0993 9.73539 32.6766 10.3125 33.3884 10.3125H35.9667Z" fill="black"/>
<path d="M28.2319 10.3125C28.9439 10.3125 29.521 9.73539 29.521 9.02344C29.521 8.31149 28.9439 7.73438 28.2319 7.73438H25.6537C24.9417 7.73438 24.3645 8.31149 24.3645 9.02344C24.3645 9.73539 24.9417 10.3125 25.6537 10.3125H28.2319Z" fill="black"/>
<path d="M25.2669 66C25.9789 66 26.556 65.4229 26.556 64.7109C26.556 63.999 25.9789 63.4219 25.2669 63.4219C24.555 63.4219 23.9778 63.999 23.9778 64.7109C23.9778 65.4229 24.555 66 25.2669 66Z" fill="black"/>
<path d="M1.28913 66H19.4658C20.1778 66 20.755 65.4229 20.755 64.7109C20.755 63.999 20.1778 63.4219 19.4658 63.4219H2.57826V12.8906H11.6022C12.3141 12.8906 12.8913 12.3135 12.8913 11.6016V2.57812H47.5688V39.0137C46.9841 39.7056 46.438 40.313 45.9656 40.7977L43.2326 38.0649C40.7143 35.545 36.6357 35.5438 34.1165 38.0646L32.2937 39.8873C31.7903 40.3907 31.7903 41.2069 32.2937 41.7103L47.5687 56.9846V63.4219H31.0679C30.3559 63.4219 29.7787 63.999 29.7787 64.7109C29.7787 65.4229 30.3559 66 31.0679 66H48.8578C49.5697 66 50.147 65.4229 50.147 64.7109V59.5627L50.5246 59.9402C51.028 60.4432 51.8444 60.4436 52.3478 59.9402L54.1706 58.1175C56.6893 55.5989 56.6898 51.5213 54.1706 49.0023L51.438 46.2697C53.8834 43.8872 59.2623 39.9296 62.0884 38.6988C66.0553 36.9721 67.4868 31.5788 64.1022 28.1944C60.7431 24.8338 55.3735 26.1993 53.6143 30.1773C52.9546 31.6683 51.5877 33.7645 50.1471 35.7289V1.28906C50.1471 0.577113 49.5698 0 48.858 0H11.6022C11.2506 0 10.9202 0.148242 10.6906 0.377566L0.377586 10.6901C0.144382 10.9227 0 11.2517 0 11.6016V64.7109C0 65.4229 0.577143 66 1.28913 66ZM52.3474 50.8253C53.8586 52.3363 53.8589 54.7831 52.3474 56.2945L51.4362 57.2058L35.0285 40.7988L35.94 39.8873C37.4511 38.3755 39.8972 38.3747 41.4093 39.8876L52.3474 50.8253ZM49.8684 40.2836C52.1025 37.5893 54.8563 33.742 55.9722 31.2203C56.9742 28.9545 60.1587 27.8962 62.279 30.0172C64.4001 32.1383 63.3225 35.35 61.0592 36.3351C57.8514 37.7322 52.2684 41.8522 49.6148 44.4466L47.7888 42.6207C48.3999 41.9953 49.114 41.1937 49.8684 40.2836ZM10.313 4.40112V10.3125H4.40134L10.313 4.40112Z" fill="black"/>
</svg>
