<svg width="84" height="68" viewBox="0 0 84 68" fill="none" xmlns="http://www.w3.org/2000/svg">
<path d="M82.7695 60.5506H78.9036V57.9557H82.7694C83.4489 57.9557 83.9998 57.4126 83.9998 56.7427V51.7188C83.9998 51.0489 83.4489 50.5058 82.7694 50.5058H68.8472V26.4661C68.8472 25.7962 68.2963 25.2531 67.6167 25.2531H56.0388V14.8744C56.0388 14.2045 55.4879 13.6615 54.8084 13.6615C54.1288 13.6615 53.5779 14.2045 53.5779 14.8744V25.2527H30.4221V2.42597H38.1183V8.1828C38.1183 9.10888 39.1578 9.6379 39.9044 9.26495L42.04 8.1993L44.0782 9.25638C45.089 9.56739 45.6901 9.20948 45.8816 8.1828V2.42597H53.5777V9.58906C53.5777 10.259 54.1286 10.802 54.8082 10.802C55.4877 10.802 56.0387 10.259 56.0387 9.58906V1.21299C56.0387 0.543094 55.4877 0 54.8082 0H29.1916C28.5121 0 27.9612 0.543094 27.9612 1.21299V25.2527H16.3833C15.7037 25.2527 15.1528 25.7958 15.1528 26.4657V36.4494C15.1528 37.1193 15.7037 37.6624 16.3833 37.6624C17.0628 37.6624 17.6138 37.1193 17.6138 36.4494V27.6787H25.3101V33.4356C25.4963 34.4527 26.0917 34.8133 27.0964 34.5177L29.232 33.4519L31.2701 34.509C32.0176 34.8966 33.0735 34.3738 33.0735 33.4356V27.6787H40.7697V50.5055H17.6138V41.7364C17.6138 41.0665 17.0628 40.5234 16.3833 40.5234C15.7037 40.5234 15.1528 41.0665 15.1528 41.7364V50.5058H1.2308C0.55125 50.5058 0.000328125 51.0489 0.000328125 51.7188V56.7427C0.000328125 57.4126 0.55125 57.9557 1.2308 57.9557H5.0966V60.5506H1.23047C0.550922 60.5506 0 61.0937 0 61.7636V66.787C0 67.4569 0.550922 68 1.23047 68H38.8221C39.5017 68 40.0526 67.4569 40.0526 66.787C40.0526 66.1171 39.5017 65.574 38.8221 65.574H2.46094V62.9766H81.5391V65.574H44.1853C43.5058 65.574 42.9548 66.1171 42.9548 66.787C42.9548 67.4569 43.5058 68 44.1853 68H82.7695C83.4491 68 84 67.4569 84 66.787V61.7636C84 61.0937 83.4491 60.5506 82.7695 60.5506ZM43.4208 6.1741L42.6239 5.76087C42.2715 5.57812 41.8507 5.57488 41.4953 5.75214L40.5794 6.20919V2.42646H43.4208V6.1741ZM30.6124 31.4269C29.6894 30.8461 28.6806 30.8582 27.771 31.4619V27.6792H30.6124V31.4269ZM76.4426 60.5506H68.7112V57.9557H76.4426V60.5506ZM66.2502 57.9557V60.5506H17.7498V57.9557H66.2502ZM66.3863 50.5058H43.2305V27.679H50.9266V33.4356C51.1129 34.4527 51.7082 34.8135 52.713 34.5177L54.8486 33.4519L56.8867 34.509C57.6342 34.8966 58.6901 34.3739 58.6901 33.4356V27.679H66.3863V50.5058ZM56.229 31.4269C55.3058 30.8461 54.2971 30.8582 53.3876 31.4619V27.679H56.229V31.4269ZM2.46127 52.9318H81.5387V55.5297H2.46127V52.9318ZM7.55737 57.9557H15.2888V60.5506H7.55737V57.9557Z" fill="black"/>
<path d="M36.8358 47.9081C37.5154 47.9081 38.0663 47.365 38.0663 46.6951C38.0663 46.0252 37.5154 45.4821 36.8358 45.4821H31.8429C31.1633 45.4821 30.6124 46.0252 30.6124 46.6951C30.6124 47.365 31.1633 47.9081 31.8429 47.9081H36.8358Z" fill="black"/>
<path d="M57.4594 45.4821C56.7799 45.4821 56.229 46.0252 56.229 46.6951C56.229 47.365 56.7799 47.9081 57.4594 47.9081H62.4525C63.1321 47.9081 63.683 47.365 63.683 46.6951C63.683 46.0252 63.1321 45.4821 62.4525 45.4821H57.4594Z" fill="black"/>
<path d="M44.6512 20.2294C43.9717 20.2294 43.4208 20.7725 43.4208 21.4424C43.4208 22.1122 43.9717 22.6553 44.6512 22.6553H49.6443C50.3239 22.6553 50.8748 22.1122 50.8748 21.4424C50.8748 20.7725 50.3239 20.2294 49.6443 20.2294H44.6512Z" fill="black"/>
</svg>
