<svg width="70" height="70" viewBox="0 0 70 70" fill="none" xmlns="http://www.w3.org/2000/svg">
<path d="M52.5 0H15.1667C14.2393 0.00276977 13.3506 0.372408 12.6949 1.02819C12.0391 1.68396 11.6694 2.57259 11.6667 3.5V28H7C6.85207 27.9977 6.70521 28.0255 6.56833 28.0817L0.735001 30.415C0.517924 30.5015 0.331808 30.6511 0.200761 30.8445C0.0697144 31.038 -0.000225649 31.2663 5.46929e-07 31.5V47.8333C0.000994685 48.0255 0.0494382 48.2144 0.141027 48.3834C0.232615 48.5523 0.364513 48.696 0.525001 48.8017L4.03667 51.135C4.22546 51.2647 4.44927 51.3339 4.67833 51.3333H11.6667V66.5C11.6694 67.4274 12.0391 68.316 12.6949 68.9718C13.3506 69.6276 14.2393 69.9972 15.1667 70H52.5C53.4274 69.9972 54.316 69.6276 54.9718 68.9718C55.6276 68.316 55.9972 67.4274 56 66.5V3.5C55.9972 2.57259 55.6276 1.68396 54.9718 1.02819C54.316 0.372408 53.4274 0.00276977 52.5 0ZM11.55 37.3333H11.6667V49H5.02833L2.33333 47.2033V32.2933L7.22167 30.3333H21C21.6188 30.3333 22.2123 30.5792 22.6499 31.0168C23.0875 31.4543 23.3333 32.0478 23.3333 32.6667C23.3333 33.2855 23.0875 33.879 22.6499 34.3166C22.2123 34.7542 21.6188 35 21 35H10.5C10.1906 35 9.89383 35.1229 9.67504 35.3417C9.45625 35.5605 9.33333 35.8572 9.33333 36.1667C9.33056 37.0941 8.96093 37.9827 8.30515 38.6385C7.64937 39.2943 6.76074 39.6639 5.83333 39.6667V42C7.17757 41.9983 8.48013 41.5332 9.52146 40.6832C10.5628 39.8331 11.2792 38.65 11.55 37.3333ZM53.6667 66.5C53.6667 66.8094 53.5438 67.1062 53.325 67.325C53.1062 67.5437 52.8094 67.6667 52.5 67.6667H15.1667C14.8572 67.6667 14.5605 67.5437 14.3417 67.325C14.1229 67.1062 14 66.8094 14 66.5V37.3333H21C22.2377 37.3333 23.4247 36.8417 24.2998 35.9665C25.175 35.0913 25.6667 33.9043 25.6667 32.6667C25.6667 31.429 25.175 30.242 24.2998 29.3668C23.4247 28.4917 22.2377 28 21 28H14V3.5C14 3.19058 14.1229 2.89383 14.3417 2.67504C14.5605 2.45625 14.8572 2.33333 15.1667 2.33333H52.5C52.8094 2.33333 53.1062 2.45625 53.325 2.67504C53.5438 2.89383 53.6667 3.19058 53.6667 3.5V66.5Z" fill="black"/>
<path d="M33.8333 21C34.1427 20.9999 34.4394 20.877 34.6582 20.6582L41.258 14.0583L39.6083 12.4087L33.8333 18.1837L31.3577 15.708L29.708 17.3577L33.0085 20.6582C33.2272 20.877 33.5239 20.9999 33.8333 21Z" fill="black"/>
<path d="M44.8117 9.43833L34.3117 4.77167C34.1617 4.7025 33.9985 4.66668 33.8333 4.66668C33.6682 4.66668 33.505 4.7025 33.355 4.77167L22.855 9.43833C22.6491 9.52877 22.4743 9.67749 22.3519 9.86615C22.2296 10.0548 22.1652 10.2752 22.1667 10.5V17.9783C22.1661 19.46 22.4799 20.9249 23.0872 22.2763C23.6945 23.6278 24.5817 24.835 25.69 25.8183L33.0633 32.375C33.2762 32.562 33.5499 32.6652 33.8333 32.6652C34.1167 32.6652 34.3904 32.562 34.6033 32.375L41.9767 25.8183C43.085 24.835 43.9721 23.6278 44.5795 22.2763C45.1868 20.9249 45.5006 19.46 45.5 17.9783V10.5C45.5014 10.2752 45.437 10.0548 45.3147 9.86615C45.1924 9.67749 45.0175 9.52877 44.8117 9.43833ZM43.1667 17.9783C43.1652 19.1311 42.9203 20.2706 42.4478 21.3221C41.9753 22.3736 41.286 23.3134 40.425 24.08L33.8333 29.9367L27.2417 24.08C26.3807 23.3134 25.6913 22.3736 25.2189 21.3221C24.7464 20.2706 24.5014 19.1311 24.5 17.9783V11.2583L33.8333 7.105L43.1667 11.2583V17.9783Z" fill="black"/>
<path d="M68.8333 23.3333H65.3333V19.8333C65.3333 18.9051 64.9646 18.0148 64.3082 17.3585C63.6518 16.7021 62.7616 16.3333 61.8333 16.3333C60.9051 16.3333 60.0148 16.7021 59.3585 17.3585C58.7021 18.0148 58.3333 18.9051 58.3333 19.8333V59.5C58.3335 59.5944 58.3452 59.6885 58.3683 59.78L60.7017 69.1133C60.7649 69.3656 60.9106 69.5895 61.1156 69.7495C61.3207 69.9095 61.5733 69.9964 61.8333 69.9964C62.0934 69.9964 62.346 69.9095 62.551 69.7495C62.7561 69.5895 62.9018 69.3656 62.965 69.1133L65.2983 59.78C65.3214 59.6885 65.3332 59.5944 65.3333 59.5V25.6667H67.6667V36.1667H70V24.5C70 24.1906 69.8771 23.8938 69.6583 23.675C69.4395 23.4562 69.1428 23.3333 68.8333 23.3333ZM61.8333 64.0267L60.9933 60.6667H62.6733L61.8333 64.0267ZM63 58.3333H60.6667V25.6667H63V58.3333ZM63 23.3333H60.6667V19.8333C60.6667 19.5239 60.7896 19.2272 61.0084 19.0084C61.2272 18.7896 61.5239 18.6667 61.8333 18.6667C62.1427 18.6667 62.4395 18.7896 62.6583 19.0084C62.8771 19.2272 63 19.5239 63 19.8333V23.3333Z" fill="black"/>
<path d="M18.6667 42H23.3333V44.3333H18.6667V42Z" fill="black"/>
<path d="M25.6667 42H49V44.3333H25.6667V42Z" fill="black"/>
<path d="M18.6667 49H23.3333V51.3333H18.6667V49Z" fill="black"/>
<path d="M25.6667 49H49V51.3333H25.6667V49Z" fill="black"/>
<path d="M18.6667 56H23.3333V58.3333H18.6667V56Z" fill="black"/>
<path d="M25.6667 56H49V58.3333H25.6667V56Z" fill="black"/>
<path d="M18.6667 63H23.3333V65.3333H18.6667V63Z" fill="black"/>
<path d="M25.6667 63H49V65.3333H25.6667V63Z" fill="black"/>
</svg>
