<svg width="78" height="56" viewBox="0 0 78 56" fill="none" xmlns="http://www.w3.org/2000/svg">
<path d="M18.2001 40.3721C13.8983 40.3721 10.4001 43.8766 10.4001 48.1861C10.4001 52.4955 13.8983 56 18.2001 56C22.5018 56 26.0001 52.4955 26.0001 48.1861C26.0001 43.8766 22.5017 40.3721 18.2001 40.3721ZM18.2001 53.3953C15.3322 53.3953 13.0001 51.0589 13.0001 48.1861C13.0001 45.3131 15.3324 42.9768 18.2001 42.9768C21.0678 42.9768 23.4 45.3132 23.4 48.1861C23.4 51.0589 21.0678 53.3953 18.2001 53.3953Z" fill="black"/>
<path d="M62.4001 40.3721C58.0984 40.3721 54.6001 43.8766 54.6001 48.1861C54.6001 52.4955 58.0984 56 62.4001 56C66.7019 56 70.2001 52.4955 70.2001 48.1861C70.2001 43.8766 66.7019 40.3721 62.4001 40.3721ZM62.4001 53.3953C59.5322 53.3953 57.2002 51.0589 57.2002 48.1861C57.2002 45.3131 59.5324 42.9768 62.4001 42.9768C65.268 42.9768 67.6001 45.3132 67.6001 48.1861C67.6001 51.0589 65.268 53.3953 62.4001 53.3953Z" fill="black"/>
<path d="M77.7934 33.156L66.0934 14.9234C65.8542 14.5509 65.4421 14.3256 65 14.3256H50.7001C49.9812 14.3256 49.4001 14.9091 49.4001 15.6279V48.1859C49.4001 48.9061 49.9812 49.4882 50.7001 49.4882H55.9001V46.8835H52.0001V16.9303H64.2903L75.4001 34.2434V46.8838H68.9V49.4883H76.7001C77.419 49.4883 78 48.9063 78 48.1861V33.8605C78.0002 33.6117 77.9287 33.3655 77.7934 33.156Z" fill="black"/>
<path d="M57.2002 31.2558V22.1395H67.6002V19.5348H55.9002C55.1813 19.5348 54.6003 20.1183 54.6003 20.8371V32.558C54.6003 33.2782 55.1813 33.8603 55.9002 33.8603H75.4002V31.2556H57.2002V31.2558Z" fill="black"/>
<path d="M50.7001 5.20939H1.29995C0.582411 5.20939 0 5.79285 0 6.51167V48.1861C0 48.9063 0.582411 49.4883 1.29995 49.4883H11.7V46.8836H2.60006V7.81394H49.4001V46.8836H24.7V49.4883L50.7001 49.4882C51.419 49.4882 52.0001 48.9063 52.0001 48.1861V6.51167C52.0001 5.79285 51.419 5.20939 50.7001 5.20939Z" fill="black"/>
<path d="M9.09997 41.6744H1.29995V44.2791H9.09997V41.6744Z" fill="black"/>
<path d="M49.4001 41.6744H27.3001V44.2791H49.4001V41.6744Z" fill="black"/>
<path d="M76.7001 41.6744H71.5001V44.2791H76.7001V41.6744Z" fill="black"/>
<path d="M50.7001 10.4186H5.19996V13.0233H50.7001V10.4186Z" fill="black"/>
<path d="M19.5 46.8836H16.9V49.4883H19.5V46.8836Z" fill="black"/>
<path d="M63.7002 46.8836H61.1002V49.4883H63.7002V46.8836Z" fill="black"/>
<path d="M23.4 0H5.19996V2.6047H23.4V0Z" fill="black"/>
<path d="M2.60006 0H0V2.6047H2.60006V0Z" fill="black"/>
</svg>
