<svg width="13" height="7" viewBox="0 0 13 7" fill="none" xmlns="http://www.w3.org/2000/svg">
<path d="M-9.97623e-07 0.996999C0.000900233 0.799592 0.0652151 0.606836 0.184857 0.442961C0.3045 0.279087 0.474129 0.151408 0.672423 0.0759758C0.870718 0.000543551 1.08883 -0.0192762 1.29933 0.0190093C1.50983 0.0572948 1.70334 0.151977 1.85552 0.291151L6.52968 4.58631L11.2038 0.291152C11.412 0.127128 11.6798 0.041419 11.9537 0.0511519C12.2276 0.0608847 12.4874 0.165343 12.6812 0.343652C12.8751 0.52196 12.9886 0.760986 12.9992 1.01296C13.0098 1.26494 12.9166 1.51132 12.7383 1.70285L7.29692 6.70886C7.09301 6.89533 6.81719 7 6.52968 7C6.24217 7 5.96634 6.89533 5.76244 6.70886L0.321042 1.70285C0.11667 1.51595 0.00121397 1.26211 -9.97623e-07 0.996999Z" fill="#FF0000"/>
</svg>
