<svg width="82" height="82" viewBox="0 0 82 82" fill="none" xmlns="http://www.w3.org/2000/svg">
<path d="M48.6875 15.375H17.9375C16.523 15.375 15.375 16.523 15.375 17.9375C15.375 19.352 16.523 20.5 17.9375 20.5H48.6875C50.102 20.5 51.25 19.352 51.25 17.9375C51.25 16.523 50.102 15.375 48.6875 15.375Z" fill="#B3C6E3"/>
<path d="M38.4375 25.625H17.9375C16.523 25.625 15.375 26.773 15.375 28.1875C15.375 29.602 16.523 30.75 17.9375 30.75H38.4375C39.852 30.75 41 29.602 41 28.1875C41 26.773 39.852 25.625 38.4375 25.625Z" fill="#B3C6E3"/>
<path d="M56.375 0H10.25C4.59712 0 0 4.59712 0 10.25V61.5C0 62.4943 0.574 63.4014 1.476 63.8216C1.81937 63.9805 2.1935 64.0625 2.5625 64.0625C3.15188 64.0625 3.73612 63.8575 4.2025 63.468L18.8651 51.25H56.375C62.0279 51.25 66.625 46.6529 66.625 41V10.25C66.625 4.59712 62.0279 0 56.375 0ZM61.5 41C61.5 43.8239 59.204 46.125 56.375 46.125H17.9375C17.3379 46.125 16.7588 46.3351 16.2975 46.7195L5.125 56.0316V10.25C5.125 7.42613 7.421 5.125 10.25 5.125H56.375C59.204 5.125 61.5 7.42613 61.5 10.25V41Z" fill="#B3C6E3"/>
<path d="M71.75 20.5C70.3355 20.5 69.1875 21.648 69.1875 23.0625C69.1875 24.477 70.3355 25.625 71.75 25.625C74.579 25.625 76.875 27.9261 76.875 30.75V74.1024L68.224 67.1836C67.773 66.8249 67.2041 66.625 66.625 66.625H30.75C27.921 66.625 25.625 64.3239 25.625 61.5V58.9375C25.625 57.523 24.477 56.375 23.0625 56.375C21.648 56.375 20.5 57.523 20.5 58.9375V61.5C20.5 67.1529 25.0971 71.75 30.75 71.75H65.723L77.8334 81.4414C78.2998 81.8104 78.8686 82 79.4375 82C79.8116 82 80.1909 81.918 80.5496 81.7489C81.4363 81.3184 82 80.4215 82 79.4375V30.75C82 25.0971 77.4029 20.5 71.75 20.5Z" fill="#B3C6E3"/>
</svg>
