<svg width="120" height="120" viewBox="0 0 120 120" fill="none" xmlns="http://www.w3.org/2000/svg">
<path fill-rule="evenodd" clip-rule="evenodd" d="M93.2653 20.292C103.27 20.292 111.387 28.3184 111.387 38.21C111.387 48.1017 103.27 56.1281 93.2653 56.1281C92.122 56.1281 91.0358 56.015 90.0068 55.8455C88.2346 45.5581 84.976 35.4969 80.0596 25.9444C83.3181 22.4399 88.063 20.292 93.2653 20.292Z" fill="#FF0000"/>
<path fill-rule="evenodd" clip-rule="evenodd" d="M55.706 0C90.0638 33.1229 95.0946 79.8116 79.545 119.943C74.9716 116.948 68.7403 109.034 45.7588 111.352C55.9919 99.1993 61.2513 86.8771 59.0218 72.2939C58.4501 87.6119 45.8732 105.021 35.8688 112.652C28.3227 114.008 19.4617 116.269 9 119.83C39.0702 99.3123 58.7359 65.0024 58.7359 26.1705C58.7359 17.2398 57.7069 8.42205 55.706 0Z" fill="#236ADB"/>
<path fill-rule="evenodd" clip-rule="evenodd" d="M64.6241 112.143C94.58 66.8675 64.567 13.1699 55.6488 0.0563965C90.0066 33.1793 95.0374 79.868 79.4877 120C76.5722 118.078 72.9706 114.121 64.6241 112.143Z" fill="#1C4C99"/>
</svg>
