<svg width="123" height="55" viewBox="0 0 123 55" fill="none" xmlns="http://www.w3.org/2000/svg">
<path fill-rule="evenodd" clip-rule="evenodd" d="M54.1293 9.25049C57.8252 9.25049 60.8242 12.2157 60.8242 15.87C60.8242 19.5242 57.8252 22.4894 54.1293 22.4894C53.7069 22.4894 53.3057 22.4477 52.9255 22.385C52.2708 18.5846 51.067 14.8676 49.2507 11.3386C50.4545 10.044 52.2075 9.25049 54.1293 9.25049Z" fill="white"/>
<path d="M70.7292 42.7445L70.1379 44.8536C68.8918 48.6749 68.3216 51.3478 68.385 52.893L68.3427 53.5194C68.3216 53.9162 68.1526 54.1041 67.857 54.0624C67.6458 54.0624 67.3501 53.9371 66.9911 53.7074C66.6109 53.4777 66.3786 53.1227 66.273 52.6842C66.0829 52.0995 65.9351 51.1598 65.8295 49.8652C65.8506 48.5079 66.273 46.3988 67.0967 43.5172C65.4494 43.8095 64.3511 43.9348 63.802 43.9139L62.8094 43.8304C62.2181 43.7677 61.5634 43.5589 60.7819 43.1413C60.0216 42.7445 59.3247 42.139 58.6911 41.3872C58.0575 40.6146 57.614 39.842 57.3395 39.0485C57.0438 38.0879 56.9382 36.8977 57.0227 35.4777C57.1071 34.2666 57.3183 33.139 57.6985 32.074C59.3881 27.5845 62.4293 23.6796 66.8221 20.4012C69.2509 18.6054 71.5951 17.3943 73.876 16.7887C74.3195 15.1182 74.5941 14.1158 74.6997 13.7609C74.932 12.863 75.291 12.4453 75.7768 12.4662C76.0725 12.4871 76.4526 12.6333 76.9172 12.8629L77.9099 13.2597L77.7831 14.1576C77.762 14.3664 77.6142 14.9929 77.3819 16.037C79.0503 15.7237 80.1696 15.5984 80.761 15.6402L81.7536 15.682C82.345 15.7446 82.9997 15.9534 83.7811 16.3711C84.5414 16.7678 85.2383 17.3734 85.8719 18.1251C86.5055 18.8977 86.949 19.6704 87.2236 20.4639C87.5192 21.4244 87.6248 22.6355 87.5404 24.0764C87.4559 25.2875 87.2447 26.4151 86.8645 27.4801C85.175 31.9487 82.1338 35.8327 77.7409 39.1111C75.3755 40.9278 73.0313 42.139 70.7292 42.7445ZM67.5613 42.0346C67.5824 41.9302 67.6247 41.8049 67.6458 41.6796C70.2435 31.2805 72.1231 23.784 73.3058 19.1901C69.9056 20.8397 66.8855 23.2411 64.2667 26.3942C61.4366 29.8188 59.7682 33.2434 59.2402 36.7097L59.1557 37.6077C59.0501 39.132 59.2825 40.3014 59.8738 41.1784C60.4651 42.0346 61.5634 42.5148 63.2107 42.6192C64.0343 42.7028 65.4916 42.494 67.5613 42.0346ZM71.4473 40.3014C74.8053 38.6517 77.7831 36.2712 80.3597 33.139C83.1897 29.7144 84.8582 26.2898 85.3862 22.8235L85.4706 21.9256C85.5762 20.4012 85.3439 19.2318 84.7737 18.3548C84.2035 17.4987 83.0841 17.0184 81.4157 16.914C80.5709 16.8513 79.1137 17.0602 77.0651 17.4987C76.0936 21.5497 74.2139 29.1506 71.4473 40.3014ZM84.8793 44.1645C84.4569 44.1645 84.0556 44.0392 83.6755 43.7886C83.2953 43.538 82.9785 43.1831 82.7462 42.7028C82.5139 42.2225 82.3872 41.7422 82.3872 41.2619C82.3872 40.1135 82.704 38.7561 83.3376 37.19C84.2668 34.9139 85.1538 33.7863 86.0409 33.7863C86.1253 33.7863 86.2732 33.7863 86.5055 33.8072C86.7378 33.8281 86.9912 33.9325 87.2869 34.1413C87.3292 34.1831 87.3925 34.204 87.4559 34.2666C87.5192 34.3292 87.5615 34.371 87.6037 34.4337C87.6248 34.4754 87.646 34.5589 87.646 34.6216C87.646 34.8095 87.4348 35.5404 86.8434 36.7306C86.6956 37.023 86.3577 37.7747 85.893 39.0485C85.2383 40.8234 84.9004 41.9093 84.9004 42.306C84.9004 42.4104 84.9215 42.4731 84.9849 42.4731C85.006 42.4731 85.0694 42.4522 85.175 42.3895C85.2806 42.3478 85.534 42.1181 85.9142 41.7005C86.2943 41.3037 86.9279 40.5728 87.7938 39.5288C88.6597 38.4847 89.5045 37.4615 90.307 36.4592C91.1096 35.4569 91.6164 34.8304 91.7854 34.5798C91.9755 34.3292 92.2289 34.204 92.5457 34.204C92.8625 34.204 93.2215 34.2666 93.4961 34.5172L93.8973 34.8722L93.1793 37.1483C92.25 40.0717 91.6798 41.8257 91.6798 42.4731C91.6798 42.6819 91.722 42.7863 91.8065 42.7863C92.25 42.7863 94.0663 41.5334 97.192 38.9858C98.1001 38.2341 98.7971 37.6494 99.325 37.2736C99.853 36.8977 100.254 36.7097 100.508 36.7097C100.719 36.7097 100.888 36.7724 100.993 36.9394L101.036 37.023C101.036 37.1065 100.993 37.2109 100.888 37.3362C100.803 37.4615 100.55 37.7121 100.17 38.0879C99.7897 38.4638 99.2194 38.9441 98.5225 39.5705L97.1286 40.8234C96.1149 41.7422 95.3757 42.3478 94.9955 42.661C93.7495 43.6216 92.6513 44.1018 91.7009 44.1018C91.2574 44.1018 90.8139 43.9766 90.3704 43.7051C89.9269 43.4336 89.6312 43.1622 89.4834 42.8489C89.3144 42.5357 89.2299 42.1598 89.251 41.7422L89.2933 40.2596L87.7093 42.306C86.7167 43.538 85.7663 44.1645 84.8793 44.1645ZM111.321 42.661C110.096 43.6007 109.019 44.081 108.069 44.081C107.625 44.081 107.181 43.9557 106.738 43.6842C106.294 43.4127 105.999 43.1413 105.851 42.8281C105.682 42.5148 105.598 42.139 105.619 41.7213L105.661 40.2387L104.077 42.2851C103.105 43.538 102.155 44.1645 101.268 44.1645C100.846 44.1645 100.444 44.0392 100.064 43.7886C99.6841 43.538 99.3673 43.1831 99.135 42.7028C98.9026 42.2225 98.7759 41.7422 98.7759 41.2619C98.7759 40.1135 99.0927 38.7561 99.7263 37.19C100.656 34.9139 102.028 32.8884 102.894 32.8884C102.979 32.8884 103.127 32.8884 103.359 32.9093C103.591 32.9302 103.845 33.0346 104.14 33.2434C104.183 33.2852 104.246 33.306 104.309 33.3687C104.373 33.4313 104.415 33.4731 104.457 33.5357C104.478 33.5775 104.499 33.661 104.499 33.7237C104.499 33.9116 103.802 35.5195 103.232 36.7306C103.084 37.023 102.746 37.7747 102.282 39.0485C101.627 40.8234 101.289 41.9093 101.289 42.306C101.289 42.4104 101.31 42.4731 101.374 42.4731C101.395 42.4731 101.458 42.4522 101.564 42.3895C101.669 42.3478 101.923 42.1181 102.303 41.7005C102.683 41.3037 103.317 40.5728 104.183 39.5288C105.048 38.4847 105.893 37.4615 106.696 36.4592C107.498 35.4569 108.005 34.8304 108.174 34.5798C108.364 34.3292 108.618 34.204 108.934 34.204C109.251 34.204 109.61 34.2666 109.885 34.5172L110.286 34.8722L109.568 37.1483C108.639 40.0717 108.069 41.8257 108.069 42.4731C108.069 42.6819 108.111 42.7863 108.195 42.7863C108.512 42.7863 109.526 42.139 111.258 40.8234V40.2805C111.258 38.61 112.018 37.3362 112.609 36.3756C113.201 35.4151 113.581 34.8304 113.75 34.5798C113.94 34.3292 114.193 34.204 114.51 34.204C114.827 34.204 115.186 34.2666 115.46 34.5172L115.862 34.8722L115.144 37.1483C114.214 40.0717 113.644 41.8257 113.644 42.4731C113.644 42.6819 113.686 42.7863 113.771 42.7863C114.214 42.7863 116.031 41.5334 119.156 38.9858C120.064 38.2341 120.761 37.6494 121.289 37.2736C121.817 36.8977 122.219 36.7097 122.472 36.7097C122.683 36.7097 122.852 36.7724 122.958 36.9394L123 37.023C123 37.1065 122.958 37.2109 122.852 37.3362C122.768 37.4615 122.514 37.7121 122.134 38.0879C121.754 38.4638 121.184 38.9441 120.487 39.5705L119.093 40.8234C118.079 41.7422 117.34 42.3478 116.96 42.661C115.714 43.6216 114.616 44.1018 113.665 44.1018C113.222 44.1018 112.778 43.9766 112.335 43.7051C111.891 43.4336 111.595 43.1622 111.448 42.8489L111.321 42.661Z" fill="white"/>
<path d="M20.7816 34.6009C21.6686 34.5174 21.6475 34.5383 22.2177 34.0789C26.7584 30.4664 31.0457 24.0766 32.7986 18.7726C33.1998 17.5615 33.4744 16.5383 33.6222 15.7031C33.8334 14.3666 34.1502 10.5453 33.4533 9.33416C32.7986 7.95597 31.5103 7.28776 29.5462 7.28776C28.3424 7.28776 27.0963 7.51746 25.7869 7.95597C26.4627 8.10214 26.8006 8.41537 26.8006 8.87476C26.8006 10.2112 22.4923 23.8051 18.0149 32.5963C17.7192 33.181 17.8037 33.6612 17.4025 34.1415C17.2124 34.3712 17.1279 34.058 16.79 34.058C16.4732 34.058 16.4943 34.0162 16.2198 33.8283C15.9452 33.6404 15.6073 33.8701 15.6073 33.5777V33.5151C15.6073 32.5754 17.0223 31.3851 17.8882 29.5893C20.3803 24.348 23.1047 16.0163 24.8999 8.29008C21.8798 9.64738 19.5778 11.7564 18.0149 14.659L17.4236 15.5986L17.8037 15.9328C17.9727 16.1207 18.0572 16.2669 18.0572 16.3713C18.0572 16.5174 17.9093 16.601 17.6348 16.6427H17.5714C17.318 16.6427 17.0434 16.5383 16.79 16.3086C16.4732 15.9954 16.3042 15.6404 16.3042 15.2019C16.3042 14.4084 16.621 13.4896 17.2335 12.4664C19.5989 8.37361 23.2103 6.05575 28.0467 5.51283L28.4691 5.49194C29.5884 5.49194 30.7711 5.86781 31.996 6.64043C33.221 7.41305 34.2136 8.45713 34.9739 9.81444C35.5441 11.0047 35.8187 12.3829 35.8187 13.949C35.8187 20.13 32.7563 27.2923 28.5324 31.8237C26.3571 34.1624 23.865 34.7262 22.0276 35.0603C21.1406 35.2274 21.6475 34.8097 21.0139 34.935C19.8101 35.1856 19.9368 34.6844 20.7816 34.6009Z" fill="white"/>
<path d="M5.80786 37.9837H5.53331C5.36435 37.9837 5.17428 37.9628 4.92084 37.9419C4.66741 37.9001 4.4351 37.8375 4.2239 37.7122C3.31576 37.1693 3.04121 35.5196 3.04121 34.5799C3.04121 32.3247 4.4351 28.0022 7.22287 21.5916C7.72974 20.4222 8.49004 18.7517 9.48266 16.5382C10.4753 14.3248 11.4679 12.1949 12.4394 10.1067C13.4109 8.03942 14.0656 6.61947 14.4457 5.86773C14.6569 5.51275 14.8259 5.17864 14.9526 4.90718C15.0793 4.63572 15.1638 4.46867 15.1849 4.4269H15.1216C14.9315 4.4269 14.3824 4.53131 13.432 4.74013C12.017 5.03247 10.433 5.32481 8.659 5.57539C6.88496 5.84685 5.66003 5.97214 5.00532 5.97214C4.05494 5.97214 2.15419 5.70068 1.37277 5.28305C0.84478 5.01159 0.44351 4.59395 0.168956 3.98839C0.0633585 3.75869 0 3.54987 0 3.34106C0 3.19489 0.0633585 3.13224 0.168956 3.13224C0.211195 3.13224 0.295673 3.19489 0.42239 3.27841C0.696944 3.48723 0.8659 3.71693 0.908139 3.98839C1.20381 4.46866 2.40762 4.69836 4.49845 4.69836C7.98317 4.69836 12.2916 3.8631 17.4447 2.21345C19.261 1.62877 21.0773 1.10673 22.8513 0.668212C24.6465 0.229698 26.4416 0 28.3001 0C29.5673 0 30.4121 0.0835265 30.8556 0.229698C31.7637 0.64733 33.1787 1.69141 33.1787 2.79814C33.1576 2.96519 33.0731 3.02783 32.9042 3.02783H32.693C32.5452 3.02783 32.3551 2.94431 32.1016 2.75637C31.5737 2.25521 30.5599 2.00463 29.1027 2.00463C28.9126 2.00463 28.3424 2.02552 27.3498 2.0464C26.3783 2.06728 24.1396 2.44315 20.6549 3.13224C19.0287 3.44547 18.1417 3.69605 18.0361 3.84222C17.7193 4.34338 15.9452 8.22736 12.7139 15.515C9.90505 21.8004 7.94093 26.457 6.84272 29.4848C5.8501 32.2412 5.36435 34.2458 5.36435 35.4987V35.8746C5.44883 36.6263 5.55443 37.0022 5.66003 37.0022C5.76562 37.0022 5.87122 37.044 5.99794 37.1484C6.10354 37.2528 6.20913 37.3572 6.27249 37.4407C6.33585 37.5243 6.37809 37.6078 6.37809 37.6704C6.35697 37.8792 6.16689 37.9628 5.80786 37.9837Z" fill="white"/>
<path fill-rule="evenodd" clip-rule="evenodd" d="M104.309 34.1415C104.351 33.9744 104.457 33.8074 104.457 33.6612C104.626 31.2807 99.3461 32.3248 99.156 34.7888C99.1138 35.3526 100.296 34.0789 101.289 33.8283C102.134 33.6195 102.387 33.6821 102.598 33.703C102.873 33.7239 104.267 34.2668 104.309 34.1415Z" fill="white"/>
<path d="M25.09 14.9931C23.0414 21.7378 19.43 26.6868 17.7404 32.8677C19.1554 33.2227 22.9358 33.4942 25.5335 30.9257L24.4564 34.3085C21.3519 35.4779 20.0002 35.4153 17.2547 34.5174C16.7056 34.3921 16.2832 33.4942 15.8608 33.7239C13.3687 35.0394 10.7921 35.2482 10.1796 33.7447C10.0952 33.4524 10.7921 32.3457 11.2145 32.1369C12.6929 31.4269 14.5725 32.5545 15.903 30.7587C18.7119 27.1253 21.3519 20.7146 23.2315 14.6172L25.09 14.9931Z" fill="white"/>
<path fill-rule="evenodd" clip-rule="evenodd" d="M40.2538 1.75403C52.9466 13.9907 54.8051 31.2389 49.0606 46.0648C47.3711 44.9581 45.069 42.0347 36.579 42.8908C40.3594 38.4013 42.3024 33.8491 41.4787 28.4616C41.2675 34.1205 36.6212 40.5521 32.9253 43.3711C30.1375 43.8722 26.864 44.7075 22.9991 46.023C34.108 38.443 41.3731 25.7679 41.3731 11.4222C41.3731 8.12292 40.993 4.86539 40.2538 1.75403Z" fill="white"/>
<path fill-rule="evenodd" clip-rule="evenodd" d="M43.5484 43.1833C54.615 26.4571 43.5273 6.61956 40.2327 1.77502C52.9255 14.0116 54.784 31.2599 49.0395 46.0858C47.9624 45.3758 46.6319 43.9141 43.5484 43.1833Z" fill="white"/>
<path fill-rule="evenodd" clip-rule="evenodd" d="M48.2581 48.2992C42.239 43.3502 31.0035 45.0625 20.5071 49.7817C24.5409 49.8444 28.3424 48.9047 33.3477 48.153C39.8314 47.1924 43.295 47.0671 48.2581 48.2992Z" fill="white"/>
<path fill-rule="evenodd" clip-rule="evenodd" d="M39.8948 51.6402C46.6319 50.2411 51.067 51.494 54.2349 51.7655C45.3647 48.7168 42.1335 48.4871 33.3478 49.8026C25.977 50.8885 21.2252 52.3919 14.488 50.5752C21.901 55.0021 29.673 53.7492 39.8948 51.6402Z" fill="white"/>
</svg>
