<svg width="34" height="34" viewBox="0 0 34 34" fill="none" xmlns="http://www.w3.org/2000/svg">
<path d="M26.5729 12.8243C25.9991 12.8243 25.5686 13.2821 25.5686 13.82C25.5686 14.357 25.9983 14.8157 26.5729 14.8157C27.1228 14.8157 27.5687 14.3699 27.5687 13.82C27.5687 13.2701 27.1229 12.8243 26.5729 12.8243Z" fill="#3281FF"/>
<path d="M33.9878 20.0373C32.8264 12.4713 28.8139 6.70873 21.2984 5.25358C20.7788 4.23986 19.8145 2.75165 18.2318 1.61826C15.4212 -0.394568 12.0458 -0.359187 8.74315 0.7928C7.75158 1.13865 7.88216 2.51733 8.8588 2.71422C11.208 3.24248 12.1943 4.41876 12.7648 5.4435C10.7571 5.89117 9.53357 6.44061 8.12953 7.36843C1.0848 12.0183 -0.928693 18.3236 0.369729 23.6162C0.369862 23.6167 0.370061 23.6172 0.370194 23.6177C1.89215 29.8152 8.25527 33.6958 8.5254 33.8579C8.6771 33.949 8.85123 34 9.04635 34C9.32538 34 11.0774 33.941 12.2935 32.5087C13.3683 31.2429 13.6742 29.3585 13.2025 26.9081C13.083 26.2867 12.4121 25.9273 11.8226 26.1853C11.8062 26.1925 10.1537 26.9046 8.13855 26.829C5.71757 26.7379 3.81422 25.5723 2.47411 23.3624C2.81986 22.7615 3.54455 21.6477 4.6296 20.7008C6.60824 18.9742 8.86298 18.5792 11.3313 19.5269C11.5411 19.6101 14.8459 20.9058 19.1668 21.7665C23.6026 22.6502 28.8828 23.0463 33.0624 21.2567C33.4095 21.108 33.6566 21.0213 33.8435 20.7284C33.9746 20.5229 34.0257 20.2777 33.9878 20.0373ZM11.4029 28.4214C11.4957 29.6526 11.2885 30.6025 10.7892 31.2031C10.3119 31.7773 9.65294 31.9423 9.30015 31.9897C8.62445 31.5425 6.70689 30.187 5.01233 28.1726C7.03804 29.006 9.30513 28.99 11.4029 28.4214ZM22.019 20.2245C21.1647 18.626 19.788 15.3992 20.6315 12.4246C21.1128 10.7279 22.2814 9.31885 24.1081 8.23086C28.6492 10.3403 30.9595 14.6239 31.8887 19.5843C28.8834 20.7363 25.1959 20.6576 22.019 20.2245ZM18.782 4.94251C17.2778 4.85675 15.9106 4.94769 14.8195 5.0855C14.4018 4.2147 13.7354 2.99528 12.3092 2.02405C15.6509 1.74823 17.6537 3.39396 18.782 4.94251ZM12.0617 17.6743C8.55255 16.2708 4.87026 17.1056 2.01802 20.5416C2.04637 17.5656 3.24853 12.9763 9.22719 9.03016C9.93788 8.56051 10.5335 8.24075 11.1582 7.99361C12.6498 7.40361 14.5127 7.07662 16.1059 6.95686C18.0163 6.81667 19.9685 6.93476 21.7936 7.40667C17.834 10.5314 17.6169 15.1918 19.6164 19.8206C15.4131 18.9869 12.1266 17.7001 12.0617 17.6743Z" fill="#3281FF"/>
</svg>
