<svg width="19" height="18" viewBox="0 0 19 18" fill="none" xmlns="http://www.w3.org/2000/svg">
<path d="M11.2407 9.00013L18.6389 1.99094C19.1204 1.53502 19.1204 0.797859 18.6389 0.341939C18.1577 -0.11398 17.3796 -0.11398 16.8983 0.341939L9.49989 7.35114L2.10167 0.341939C1.62021 -0.11398 0.842336 -0.11398 0.361098 0.341939C-0.120366 0.797859 -0.120366 1.53502 0.361098 1.99094L7.75932 9.00013L0.361098 16.0093C-0.120366 16.4653 -0.120366 17.2024 0.361098 17.6583C0.600928 17.8858 0.916268 18 1.23138 18C1.5465 18 1.86161 17.8858 2.10167 17.6583L9.49989 10.6491L16.8983 17.6583C17.1384 17.8858 17.4535 18 17.7686 18C18.0837 18 18.3988 17.8858 18.6389 17.6583C19.1204 17.2024 19.1204 16.4653 18.6389 16.0093L11.2407 9.00013Z" fill="#666666"/>
</svg>
