<svg width="167" height="74" viewBox="0 0 167 74" fill="none" xmlns="http://www.w3.org/2000/svg">
<path fill-rule="evenodd" clip-rule="evenodd" d="M73.0902 12.491C78.0807 12.491 82.1302 16.4948 82.1302 21.4292C82.1302 26.3635 78.0807 30.3674 73.0902 30.3674C72.5198 30.3674 71.978 30.311 71.4647 30.2264C70.5807 25.0947 68.9552 20.0757 66.5027 15.3106C68.1282 13.5624 70.4951 12.491 73.0902 12.491Z" fill="#FF0000"/>
<path d="M95.5049 57.7177L94.7064 60.5655C93.0239 65.7254 92.2539 69.3345 92.3395 71.421L92.2824 72.2669C92.2539 72.8026 92.0258 73.0564 91.6265 73C91.3414 73 90.9421 72.8308 90.4573 72.5207C89.944 72.2105 89.6303 71.7312 89.4877 71.1391C89.2311 70.3496 89.0314 69.0807 88.8889 67.3326C88.9174 65.4998 89.4877 62.652 90.5999 58.7609C88.3755 59.1557 86.8926 59.3249 86.1512 59.2967L84.8109 59.1839C84.0124 59.0993 83.1283 58.8173 82.0732 58.2534C81.0466 57.7177 80.1055 56.9 79.25 55.8849C78.3944 54.8417 77.7956 53.7984 77.4248 52.7269C77.0256 51.4299 76.883 49.8227 76.9971 47.9054C77.1112 46.27 77.3963 44.7474 77.9096 43.3094C80.191 37.2472 84.2975 31.9745 90.2292 27.5477C93.5087 25.1228 96.6741 23.4875 99.754 22.6698C100.353 20.4141 100.724 19.0607 100.866 18.5813C101.18 17.3689 101.665 16.805 102.321 16.8332C102.72 16.8614 103.233 17.0587 103.861 17.3689L105.201 17.9046L105.03 19.1171C105.001 19.399 104.802 20.2449 104.488 21.6547C106.741 21.2318 108.252 21.0626 109.051 21.119L110.391 21.1754C111.189 21.26 112.074 21.5419 113.129 22.1059C114.155 22.6416 115.096 23.4593 115.952 24.4743C116.807 25.5176 117.406 26.5609 117.777 27.6323C118.176 28.9293 118.319 30.5647 118.205 32.5103C118.091 34.1456 117.806 35.6682 117.292 37.1062C115.011 43.1402 110.904 48.3847 104.973 52.8115C101.779 55.2646 98.6133 56.9 95.5049 57.7177ZM91.2273 56.759C91.2558 56.618 91.3128 56.4488 91.3414 56.2797C94.849 42.238 97.3871 32.1155 98.984 25.9123C94.3927 28.1398 90.3147 31.3824 86.7786 35.64C82.9572 40.2642 80.7044 44.8884 79.9914 49.569L79.8773 50.7814C79.7348 52.8397 80.0485 54.4187 80.8469 55.603C81.6454 56.759 83.1283 57.4075 85.3527 57.5485C86.4649 57.6613 88.4326 57.3793 91.2273 56.759ZM96.4745 54.4187C101.009 52.1912 105.03 48.9768 108.509 44.7474C112.33 40.1232 114.583 35.4991 115.296 30.8185L115.41 29.606C115.553 27.5477 115.239 25.9687 114.469 24.7845C113.699 23.6284 112.188 22.9799 109.935 22.839C108.794 22.7544 106.826 23.0363 104.06 23.6284C102.748 29.0985 100.21 39.3619 96.4745 54.4187ZM114.612 59.635C114.041 59.635 113.499 59.4658 112.986 59.1275C112.473 58.7891 112.045 58.3098 111.731 57.6613C111.418 57.0128 111.247 56.3643 111.247 55.7157C111.247 54.1649 111.674 52.3322 112.53 50.2175C113.785 47.1441 114.982 45.6215 116.18 45.6215C116.294 45.6215 116.494 45.6215 116.807 45.6497C117.121 45.6779 117.463 45.8189 117.863 46.1008C117.92 46.1572 118.005 46.1854 118.091 46.27C118.176 46.3546 118.233 46.411 118.29 46.4956C118.319 46.552 118.347 46.6648 118.347 46.7493C118.347 47.0031 118.062 47.99 117.264 49.5972C117.064 49.9919 116.608 51.007 115.98 52.7269C115.096 55.1236 114.64 56.5898 114.64 57.1256C114.64 57.2665 114.669 57.3511 114.754 57.3511C114.783 57.3511 114.868 57.3229 115.011 57.2383C115.153 57.1819 115.496 56.8718 116.009 56.3079C116.522 55.7721 117.378 54.7853 118.547 53.3755C119.716 51.9656 120.857 50.584 121.941 49.2306C123.024 47.8772 123.709 47.0313 123.937 46.6929C124.193 46.3546 124.536 46.1854 124.963 46.1854C125.391 46.1854 125.876 46.27 126.247 46.6084L126.789 47.0877L125.819 50.1611C124.564 54.1086 123.794 56.477 123.794 57.3511C123.794 57.6331 123.851 57.7741 123.965 57.7741C124.564 57.7741 127.017 56.0823 131.237 52.6423C132.464 51.6273 133.405 50.8378 134.118 50.3303C134.83 49.8227 135.372 49.569 135.714 49.569C136 49.569 136.228 49.6535 136.37 49.8791L136.427 49.9919C136.427 50.1047 136.37 50.2457 136.228 50.4148C136.114 50.584 135.772 50.9224 135.258 51.4299C134.745 51.9374 133.975 52.586 133.034 53.4318L131.152 55.1236C129.783 56.3643 128.785 57.1819 128.271 57.6049C126.589 58.9019 125.106 59.5504 123.823 59.5504C123.224 59.5504 122.625 59.3812 122.026 59.0147C121.427 58.6481 121.028 58.2816 120.828 57.8586C120.6 57.4357 120.486 56.9282 120.515 56.3642L120.572 54.3623L118.433 57.1256C117.093 58.7891 115.809 59.635 114.612 59.635ZM150.315 57.6049C148.661 58.8737 147.207 59.5222 145.924 59.5222C145.325 59.5222 144.726 59.353 144.127 58.9865C143.528 58.6199 143.129 58.2534 142.929 57.8305C142.701 57.4075 142.587 56.9 142.616 56.3361L142.673 54.3341L140.534 57.0974C139.222 58.7891 137.939 59.635 136.741 59.635C136.171 59.635 135.629 59.4658 135.116 59.1275C134.602 58.7891 134.175 58.3098 133.861 57.6613C133.547 57.0128 133.376 56.3643 133.376 55.7157C133.376 54.1649 133.804 52.3322 134.659 50.2175C135.914 47.1441 137.768 44.4091 138.937 44.4091C139.051 44.4091 139.251 44.4091 139.564 44.4373C139.878 44.4654 140.22 44.6064 140.62 44.8884C140.677 44.9448 140.762 44.973 140.848 45.0576C140.933 45.1422 140.99 45.1986 141.047 45.2831C141.076 45.3395 141.104 45.4523 141.104 45.5369C141.104 45.7907 140.163 47.9618 139.393 49.5972C139.194 49.9919 138.737 51.007 138.11 52.7269C137.226 55.1236 136.77 56.5898 136.77 57.1256C136.77 57.2665 136.798 57.3511 136.884 57.3511C136.912 57.3511 136.998 57.3229 137.14 57.2383C137.283 57.1819 137.625 56.8718 138.138 56.3079C138.652 55.7721 139.507 54.7853 140.677 53.3755C141.846 51.9656 142.986 50.584 144.07 49.2306C145.154 47.8772 145.838 47.0313 146.066 46.6929C146.323 46.3546 146.665 46.1854 147.093 46.1854C147.521 46.1854 148.006 46.27 148.376 46.6084L148.918 47.0877L147.948 50.1611C146.694 54.1086 145.924 56.477 145.924 57.3511C145.924 57.6331 145.981 57.7741 146.095 57.7741C146.523 57.7741 147.891 56.9 150.23 55.1236V54.3905C150.23 52.1348 151.257 50.4148 152.055 49.1178C152.853 47.8208 153.367 47.0313 153.595 46.6929C153.852 46.3546 154.194 46.1854 154.622 46.1854C155.049 46.1854 155.534 46.27 155.905 46.6084L156.447 47.0877L155.477 50.1611C154.222 54.1086 153.452 56.477 153.452 57.3511C153.452 57.6331 153.509 57.7741 153.623 57.7741C154.222 57.7741 156.675 56.0823 160.895 52.6423C162.122 51.6273 163.063 50.8378 163.776 50.3303C164.489 49.8227 165.03 49.569 165.373 49.569C165.658 49.569 165.886 49.6535 166.029 49.8791L166.086 49.9919C166.086 50.1047 166.029 50.2457 165.886 50.4148C165.772 50.584 165.43 50.9224 164.916 51.4299C164.403 51.9374 163.633 52.586 162.692 53.4318L160.81 55.1236C159.441 56.3643 158.443 57.1819 157.93 57.6049C156.247 58.9019 154.764 59.5504 153.481 59.5504C152.882 59.5504 152.283 59.3812 151.684 59.0147C151.085 58.6481 150.686 58.2816 150.487 57.8586L150.315 57.6049Z" fill="#201600"/>
<path d="M28.0612 46.7212C29.2589 46.6084 29.2304 46.6366 30.0003 46.0163C36.1316 41.1383 41.9206 32.5103 44.2876 25.3484C44.8294 23.7131 45.2001 22.3314 45.3998 21.2036C45.6849 19.399 46.1127 14.2391 45.1716 12.6038C44.2876 10.7428 42.548 9.84052 39.8959 9.84052C38.2704 9.84052 36.5879 10.1507 34.8198 10.7428C35.7323 10.9402 36.1886 11.3631 36.1886 11.9834C36.1886 13.788 30.3711 32.1437 24.3254 44.0143C23.9261 44.8038 24.0402 45.4523 23.4984 46.1009C23.2417 46.411 23.1276 45.9881 22.6714 45.9881C22.2436 45.9881 22.2721 45.9317 21.9014 45.6779C21.5307 45.4242 21.0744 45.7343 21.0744 45.3396V45.255C21.0744 43.9861 22.9851 42.379 24.1543 39.9541C27.5193 32.8768 31.1981 21.6265 33.6221 11.1939C29.5441 13.0267 26.4357 15.8745 24.3254 19.7938L23.5269 21.0626L24.0402 21.5138C24.2683 21.7675 24.3824 21.9649 24.3824 22.1059C24.3824 22.3033 24.1828 22.416 23.8121 22.4724H23.7265C23.3843 22.4724 23.0136 22.3314 22.6714 22.0213C22.2436 21.5983 22.0155 21.119 22.0155 20.5269C22.0155 19.4554 22.4432 18.2148 23.2702 16.8332C26.4642 11.3067 31.3407 8.17695 37.8712 7.44385L38.4415 7.41565C39.9529 7.41565 41.5499 7.92318 43.2039 8.96644C44.8579 10.0097 46.1982 11.4195 47.2249 13.2523C47.9948 14.8595 48.3656 16.7204 48.3656 18.8351C48.3656 27.1812 44.2305 36.8525 38.5271 42.9711C35.5898 46.1291 32.2247 46.8904 29.7437 47.3415C28.546 47.5671 29.2304 47.0031 28.3748 47.1723C26.7494 47.5107 26.9205 46.834 28.0612 46.7212Z" fill="#201600"/>
<path d="M7.8423 51.2889H7.47157C7.24343 51.2889 6.98677 51.2607 6.64456 51.2325C6.30235 51.1761 5.98866 51.0915 5.70349 50.9224C4.47724 50.1893 4.10651 47.9618 4.10651 46.6929C4.10651 43.6477 5.98866 37.8111 9.75296 29.1549C10.4374 27.5759 11.464 25.3202 12.8043 22.3314C14.1446 19.3426 15.485 16.4666 16.7968 13.647C18.1086 10.8555 18.9926 8.9382 19.5059 7.92314C19.7911 7.4438 20.0192 6.99266 20.1903 6.62611C20.3615 6.25956 20.4755 6.03399 20.504 5.9776H20.4185C20.1618 5.9776 19.4204 6.11858 18.1371 6.40054C16.2264 6.79529 14.0876 7.19004 11.6921 7.52839C9.29668 7.89494 7.64267 8.06412 6.75863 8.06412C5.47535 8.06412 2.90878 7.69757 1.85363 7.13364C1.1407 6.76709 0.598866 6.20317 0.228139 5.38548C0.0855523 5.07532 0 4.79336 0 4.51139C0 4.31402 0.0855523 4.22943 0.228139 4.22943C0.285174 4.22943 0.399244 4.31402 0.570349 4.42681C0.941075 4.70877 1.16921 5.01893 1.22625 5.38548C1.62549 6.03399 3.25099 6.34415 6.07421 6.34415C10.7796 6.34415 16.5971 5.2163 23.5554 2.9888C26.0079 2.1993 28.4604 1.4944 30.8559 0.902279C33.2798 0.310158 35.7038 0 38.2134 0C39.9244 0 41.0651 0.112785 41.664 0.310158C42.8902 0.874083 44.8009 2.28389 44.8009 3.77829C44.7724 4.00386 44.6583 4.08845 44.4302 4.08845H44.145C43.9454 4.08845 43.6887 3.97567 43.3465 3.7219C42.6336 3.04519 41.2647 2.70684 39.297 2.70684C39.0404 2.70684 38.2704 2.73503 36.9301 2.76323C35.6183 2.79143 32.5954 3.29896 27.8901 4.22943C25.6942 4.65238 24.4965 4.99073 24.3539 5.1881C23.9261 5.86481 21.5307 11.1093 17.1675 20.9498C13.3747 29.4369 10.7226 35.7246 9.23965 39.8131C7.89933 43.535 7.24343 46.2418 7.24343 47.9336V48.4411C7.3575 49.4562 7.50009 49.9637 7.64267 49.9637C7.78526 49.9637 7.92785 50.0201 8.09895 50.1611C8.24154 50.302 8.38413 50.443 8.46968 50.5558C8.55523 50.6686 8.61227 50.7814 8.61227 50.866C8.58375 51.1479 8.32709 51.2607 7.8423 51.2889Z" fill="#201600"/>
<path fill-rule="evenodd" clip-rule="evenodd" d="M140.848 46.1008C140.905 45.8753 141.047 45.6497 141.047 45.4523C141.275 42.2379 134.146 43.6478 133.889 46.9749C133.832 47.7362 135.429 46.0162 136.77 45.6779C137.91 45.3959 138.253 45.4805 138.538 45.5087C138.908 45.5369 140.791 46.27 140.848 46.1008Z" fill="#201600"/>
<path d="M33.8787 20.2448C31.1125 29.3522 26.236 36.0347 23.9546 44.3808C25.8653 44.8601 30.9699 45.2267 34.4776 41.7585L33.0232 46.3263C28.8311 47.9053 27.006 47.8207 23.2987 46.6083C22.5573 46.4391 21.9869 45.2267 21.4166 45.5368C18.0515 47.3132 14.5724 47.5952 13.7454 45.565C13.6313 45.1703 14.5724 43.6759 15.1428 43.3939C17.139 42.4353 19.677 43.9579 21.4736 41.533C25.2664 36.6268 28.8311 27.9706 31.3692 19.7373L33.8787 20.2448Z" fill="#201600"/>
<path fill-rule="evenodd" clip-rule="evenodd" d="M54.3542 2.36853C71.4932 18.8915 74.0027 42.1816 66.246 62.2009C63.9646 60.7065 60.8562 56.759 49.3922 57.9151C54.4968 51.8529 57.1204 45.7061 56.0082 38.4315C55.7231 46.0727 49.4492 54.7571 44.4587 58.5636C40.6944 59.2403 36.2742 60.3681 31.0555 62.1445C46.0557 51.9093 55.8657 34.7942 55.8657 15.4234C55.8657 10.9684 55.3523 6.56977 54.3542 2.36853Z" fill="#236ADB"/>
<path fill-rule="evenodd" clip-rule="evenodd" d="M58.803 58.3098C73.7461 35.7247 58.7744 8.93825 54.3257 2.39673C71.4647 18.9197 73.9742 42.2098 66.2175 62.2291C64.7631 61.2704 62.9665 59.2967 58.803 58.3098Z" fill="#1C4C99"/>
<path fill-rule="evenodd" clip-rule="evenodd" d="M65.1623 65.2179C57.0349 58.5354 41.8636 60.8474 27.6904 67.2198C33.1373 67.3044 38.2704 66.0355 45.029 65.0205C53.7839 63.7235 58.4607 63.5543 65.1623 65.2179Z" fill="#0B2275"/>
<path fill-rule="evenodd" clip-rule="evenodd" d="M53.8694 69.7292C62.9665 67.84 68.9552 69.5318 73.2328 69.8984C61.2554 65.7817 56.8923 65.4716 45.029 67.2479C35.0764 68.7141 28.66 70.7443 19.563 68.2912C29.5726 74.2688 40.067 72.577 53.8694 69.7292Z" fill="#1C5BBF"/>
</svg>
