<svg width="35" height="41" viewBox="0 0 35 41" fill="none" xmlns="http://www.w3.org/2000/svg">
<path fill-rule="evenodd" clip-rule="evenodd" d="M28.7906 6.93317C32.2088 6.93317 34.9824 9.67551 34.9824 13.0552C34.9824 16.4348 32.2088 19.1772 28.7906 19.1772C28.4 19.1772 28.0289 19.1385 27.6773 19.0806C27.0718 15.5658 25.9585 12.1282 24.2787 8.8644C25.392 7.66703 27.0132 6.93317 28.7906 6.93317Z" fill="#FF0000"/>
<path fill-rule="evenodd" clip-rule="evenodd" d="M15.9579 0C27.6968 11.317 29.4157 27.269 24.1029 40.9807C22.5403 39.9571 20.4113 37.2534 12.5593 38.0452C16.0556 33.8931 17.8525 29.683 17.0908 24.7004C16.8954 29.9341 12.5983 35.8822 9.18018 38.4894C6.60192 38.9529 3.57441 39.7254 0 40.9421C10.274 33.9317 16.9931 22.2091 16.9931 8.94159C16.9931 5.89025 16.6415 2.87753 15.9579 0Z" fill="#236ADB"/>
<path fill-rule="evenodd" clip-rule="evenodd" d="M19.005 38.3156C29.2399 22.8464 18.9854 4.49974 15.9384 0.0192871C27.6773 11.3363 29.3961 27.2882 24.0834 41C23.0872 40.3434 21.8567 38.9915 19.005 38.3156Z" fill="#1C4C99"/>
</svg>
