<svg width="30" height="26" viewBox="0 0 30 26" fill="none" xmlns="http://www.w3.org/2000/svg">
<path d="M15 12.7157C17.8353 12.7157 20.134 9.86919 20.134 6.35791C20.134 2.84654 19.3792 0 15 0C10.6207 0 9.86603 2.84654 9.86603 6.35791C9.86611 9.86919 12.1647 12.7157 15 12.7157Z" fill="#666666"/>
<path d="M24.6857 22.1667C24.5908 16.0498 23.8072 14.3069 17.8115 13.2035C17.8115 13.2035 16.9673 14.3 15.0002 14.3C13.033 14.3 12.189 13.2035 12.189 13.2035C6.25862 14.2947 5.4273 16.0119 5.31804 21.9679C5.30915 22.4543 5.30505 22.4798 5.30343 22.4233C5.30374 22.5291 5.3042 22.7248 5.3042 23.066C5.3042 23.066 6.7317 26 15.0002 26C23.2688 26 24.6964 23.066 24.6964 23.066C24.6964 22.8468 24.6966 22.6943 24.6967 22.5907C24.6951 22.6256 24.6918 22.5579 24.6857 22.1667Z" fill="#666666"/>
<path d="M22.1247 11.5806C24.4276 11.5806 26.2944 9.26866 26.2944 6.41684C26.2944 3.56494 25.6814 1.25305 22.1247 1.25305C21.5265 1.25305 21.0117 1.31868 20.5688 1.4412C21.3903 2.98529 21.5029 4.86077 21.5029 6.35783C21.5029 8.05288 21.0522 9.67119 20.2223 11.0111C20.7927 11.3744 21.4391 11.5806 22.1247 11.5806Z" fill="#666666"/>
<path d="M29.9911 19.2564C29.9138 14.2884 29.2776 12.8728 24.4079 11.9767C24.4079 11.9767 23.7224 12.8673 22.1246 12.8673C22.0586 12.8673 21.9945 12.8653 21.9315 12.8624C22.9466 13.329 23.8701 13.9788 24.5502 14.9296C25.7259 16.5734 25.9962 18.7815 26.052 22.0254C29.3283 21.3654 29.9997 19.987 29.9997 19.987C29.9997 19.8073 29.9997 19.6841 30 19.5999C29.9987 19.6295 29.996 19.5764 29.9911 19.2564Z" fill="#666666"/>
<path d="M7.87521 11.5806C8.56086 11.5806 9.20711 11.3744 9.77778 11.0112C8.94785 9.67127 8.49719 8.05296 8.49719 6.35791C8.49719 4.86077 8.60978 2.98529 9.43113 1.44128C8.98835 1.31876 8.47362 1.25313 7.87521 1.25313C4.31849 1.25313 3.7057 3.56502 3.7057 6.41692C3.7057 9.26866 5.5725 11.5806 7.87521 11.5806Z" fill="#666666"/>
<path d="M8.06839 12.8623C8.00549 12.8652 7.94143 12.8672 7.87521 12.8672C6.27748 12.8672 5.59197 11.9766 5.59197 11.9766C0.72244 12.8728 0.0860066 14.2883 0.00888658 19.2563C0.00386373 19.5764 0.00131367 19.6294 0 19.5997C0.000154549 19.6839 0.000309098 19.8072 0.000309098 19.9868C0.000309098 19.9868 0.671825 21.3652 3.9478 22.0253C4.00383 18.7814 4.27398 16.5733 5.44987 14.9294C6.12988 13.9788 7.05324 13.3289 8.06839 12.8623Z" fill="#666666"/>
</svg>
